<svg viewBox="0 0 192 192" fill="none" xmlns="http://www.w3.org/2000/svg">
                <g clip-path="url(#clip0_18_1465)">
                    <path
                        d="M97.7177 125.335C114.929 125.335 128.881 111.383 128.881 94.1718C128.881 76.9606 114.929 63.0082 97.7177 63.0082C80.5066 63.0082 66.5542 76.9606 66.5542 94.1718C66.5542 111.383 80.5066 125.335 97.7177 125.335Z"
                        fill="#FFB6B6" />
                    <path
                        d="M79.828 129.944L78.4201 115.712L106.535 110.455L123.136 150.876L94.2641 184.079L73.6926 143.658L79.828 129.944Z"
                        fill="#FFB6B6" />
                    <path
                        d="M77.9684 122.836L84.1149 124.225C84.1149 124.225 79.2831 108.903 80.9231 107.44C82.5632 105.977 86.5821 108.282 86.5821 108.282L90.8054 113.017L95.9496 107.779C95.9496 107.779 101.535 100.835 103.721 98.8844C105.908 96.934 102.396 89.6945 102.396 89.6945C102.396 89.6945 134.838 80.9465 122.766 65.211C122.766 65.211 115.688 52.8738 113.384 56.8927C111.079 60.9116 108.33 54.5288 108.33 54.5288L99.938 56.1247C99.938 56.1247 83.3746 46.3585 67.6541 67.2511C51.9335 88.1438 77.9684 122.836 77.9684 122.836Z"
                        fill="#2F2E41" />
                    <path
                        d="M156.328 170.689C139.297 184.497 118.228 192 96 192C75.7028 192 56.3693 185.742 40.1973 174.143C40.2261 173.839 40.255 173.54 40.2803 173.24C40.7098 168.549 41.0923 163.987 41.3449 160.204C42.323 145.519 76.5834 135.732 76.5834 135.732C76.5834 135.732 76.7386 135.887 77.049 136.158C78.9401 137.818 86.6165 143.838 100.078 145.519C112.082 147.021 116.034 139.9 117.228 136.49C117.589 135.45 117.697 134.754 117.697 134.754L152.936 151.395C155.235 154.679 156.134 161.753 156.31 169.703C156.318 170.032 156.325 170.357 156.328 170.689Z"
                        fill="#198754" />
                    <path
                        d="M163.882 28.1179C145.75 9.98616 121.642 0 96 0C70.3579 0 46.2496 9.98616 28.1179 28.1179C9.98618 46.2496 0 70.3579 0 96C0 119.405 8.31881 141.531 23.5633 159.003C25.0177 160.674 26.5372 162.301 28.1179 163.882C28.4896 164.254 28.865 164.626 29.2439 164.986C30.2544 165.965 31.283 166.921 32.3296 167.848C32.9648 168.415 33.6072 168.971 34.2569 169.516C34.7657 169.945 35.2746 170.368 35.7907 170.783C35.8015 170.793 35.8087 170.801 35.8196 170.808C37.2523 171.963 38.7104 173.074 40.1973 174.143C56.3693 185.742 75.7029 192 96 192C118.228 192 139.297 184.497 156.328 170.689C157.718 169.563 159.079 168.393 160.414 167.184C161.594 166.116 162.749 165.015 163.882 163.882C164.239 163.525 164.597 163.164 164.947 162.799C165.921 161.796 166.867 160.775 167.791 159.739C183.443 142.156 192 119.737 192 96C192 70.3579 182.014 46.2496 163.882 28.1179ZM167.556 158.84C166.654 159.865 165.73 160.876 164.784 161.861C163.312 163.395 161.792 164.882 160.223 166.315C159.627 166.863 159.024 167.397 158.414 167.928C157.722 168.531 157.021 169.122 156.31 169.703C150.706 174.305 144.567 178.275 138.002 181.509C135.407 182.79 132.747 183.955 130.026 184.999C119.455 189.055 107.982 191.278 96 191.278C84.4367 191.278 73.3498 189.207 63.0893 185.417C58.8776 183.865 54.8066 182.021 50.8981 179.91C50.3242 179.599 49.754 179.285 49.1874 178.964C46.2063 177.275 43.3227 175.431 40.5546 173.439C40.4644 173.374 40.3705 173.305 40.2803 173.24C38.3098 171.818 36.3934 170.321 34.542 168.747C33.8635 168.173 33.1922 167.592 32.5317 166.997C31.4563 166.04 30.4024 165.055 29.3738 164.044C27.425 162.135 25.5627 160.147 23.7835 158.079C9.41595 141.391 0.721804 119.693 0.721804 96C0.721804 43.4635 43.4635 0.721804 96 0.721804C148.537 0.721804 191.278 43.4635 191.278 96C191.278 120.058 182.317 142.058 167.556 158.84Z"
                        fill="#3F3D56" />
                </g>
                <defs>
                    <clipPath id="clip0_18_1465">
                        <rect width="192" height="192" fill="white" />
                    </clipPath>
                </defs>
</svg>